# Blender v2.82 (sub 7) OBJ File: ''
# www.blender.org
mtllib pump_arrow.mtl
o Valve_Arrow
v -0.002000 0.006500 0.000000
v 0.002000 0.006500 0.000000
v -0.002000 0.006500 -0.003000
v 0.002000 0.006500 -0.003000
v -0.002000 -0.001500 0.000000
v -0.002000 -0.001500 -0.003000
v -0.004000 -0.001500 0.000000
v -0.004000 -0.001500 -0.003000
v 0.000000 -0.006500 -0.000000
v 0.000000 -0.006500 -0.003000
v 0.004000 -0.001500 0.000000
v 0.004000 -0.001500 -0.003000
v 0.002000 -0.001500 0.000000
v 0.002000 -0.001500 -0.003000
vn 0.0000 1.0000 0.0000
vn -1.0000 0.0000 0.0000
vn -0.7809 -0.6247 0.0000
vn 0.7809 -0.6247 0.0000
vn 1.0000 0.0000 0.0000
vn 0.0000 -0.0000 1.0000
vn 0.0000 0.0000 -1.0000
usemtl Material.001
s off
f 1//1 2//1 3//1
f 3//1 2//1 4//1
f 5//2 1//2 6//2
f 6//2 1//2 3//2
f 7//1 5//1 8//1
f 8//1 5//1 6//1
f 9//3 7//3 10//3
f 10//3 7//3 8//3
f 11//4 9//4 12//4
f 12//4 9//4 10//4
f 13//1 11//1 14//1
f 14//1 11//1 12//1
f 2//5 13//5 4//5
f 4//5 13//5 14//5
f 2//6 1//6 13//6
f 13//6 1//6 5//6
f 13//6 5//6 9//6
f 9//6 5//6 7//6
f 9//6 11//6 13//6
f 4//7 14//7 3//7
f 3//7 14//7 6//7
f 6//7 14//7 10//7
f 6//7 10//7 8//7
f 14//7 12//7 10//7

###north_ide_processed
###lsh 0 2
###lsh 4 5
###lsh 6 7
###lsh 8 9
###lsh 10 11
###lsh 3 1
###lsh 12 13
###lsh 1 0
###lsh 12 1
###lsh 0 4
###lsh 4 6
###lsh 6 8
###lsh 8 10
###lsh 10 12
###lsh 3 13
###lsh 2 3
###lsh 5 2
###lsh 9 7
###lsh 7 5
###lsh 13 11
###lsh 11 9
###lsm 2 1
###lsm 5 0
###lsm 7 4
###lsm 9 6
###lsm 11 8
###lsm 13 10
###lsm 3 12
###lsm 12 0
###lsm 12 4
###lsm 8 4
###lsm 12 8
###lsm 2 13
###lsm 5 13
###lsm 5 9
###lsm 9 13
###fch 0 1
###fch 2 3
###fch 4 5
###fch 6 7
###fch 8 9
###fch 10 11
###fch 12 13
###fch 16 17 18 14 15
###fch 19 20 21 22 23
